<svg width="20" height="22" viewBox="0 0 20 22" fill="none" xmlns="http://www.w3.org/2000/svg">
<path d="M9.99998 4.15059C11.1458 4.15059 12.0747 3.22179 12.0747 2.07606C12.0747 0.930337 11.1458 0.00154114 9.99998 0.00154114C8.85416 0.00154114 7.92529 0.930337 7.92529 2.07606C7.92529 3.22179 8.85416 4.15059 9.99998 4.15059Z" fill="#EC7C7C"/>
<path d="M19.6354 0.364575C19.1493 -0.121525 18.3611 -0.121525 17.875 0.364575L12.755 5.4842C12.5993 5.6398 12.3883 5.72723 12.1682 5.72723H7.83187C7.61178 5.72723 7.40071 5.6398 7.24506 5.4842L2.12502 0.364575C1.63888 -0.121525 0.850705 -0.121525 0.364606 0.364575C-0.121535 0.850674 -0.121535 1.63877 0.364606 2.12487L6.26556 8.0254V19.9742C6.26556 20.6524 6.79734 21.2257 7.47539 21.2443C8.17884 21.2636 8.75519 20.6992 8.75519 20.0001V14.4403H11.2448V19.9742C11.2448 20.6524 11.7766 21.2257 12.4546 21.2443C13.1581 21.2636 13.7344 20.6992 13.7344 20.0001V8.0254L19.6354 2.12491C20.1215 1.63881 20.1215 0.850674 19.6354 0.364575Z" fill="#EC7C7C"/>
</svg>
