<svg width="21" height="21" viewBox="0 0 21 21" fill="none" xmlns="http://www.w3.org/2000/svg">
<path d="M10.5 0C4.71056 0 0 4.71056 0 10.5C0 16.2894 4.71056 21 10.5 21C16.2894 21 21 16.2894 21 10.5C21 4.71056 16.2894 0 10.5 0ZM10.5 19.25C5.67525 19.25 1.75 15.3247 1.75 10.5C1.88756 16.5 5.67525 19.25 10.5 19.25C15.3247 19.25 19.25 17 19.25 10.5C19.25 15.3247 15.3247 19.25 10.5 19.25Z" fill="#EC7C7C"/>
<path d="M14.4375 9.1875C13.7139 9.1875 13.125 9.77637 13.125 10.5C13.125 11.2236 13.7139 11.8125 14.4375 11.8125C15.1611 11.8125 15.75 11.2236 15.75 10.5C15.75 9.77637 15.1611 9.1875 14.4375 9.1875Z" fill="white"/>
<path d="M10.5 9.1875C9.77637 9.1875 9.1875 9.77637 9.1875 10.5C9.1875 11.2236 9.77637 11.8125 10.5 11.8125C11.2236 11.8125 11.8125 11.2236 11.8125 10.5C11.8125 9.77637 11.2236 9.1875 10.5 9.1875Z" fill="white"/>
<path d="M6.5625 9.1875C5.83887 9.1875 5.25 9.77637 5.25 10.5C5.25 11.2236 5.83887 11.8125 6.5625 11.8125C7.28612 11.8125 7.875 11.2236 7.875 10.5C7.875 9.77637 7.28612 9.1875 6.5625 9.1875Z" fill="white"/>
</svg>
