<svg width="70" height="70" viewBox="0 0 70 70" fill="none" xmlns="http://www.w3.org/2000/svg">
<circle cx="35" cy="35" r="32.5" fill="#EC7C7C" stroke="#F9F9F9" stroke-width="5"/>
<path d="M34.5 22C27.0564 22 21 28.0564 21 35.5C21 42.9436 27.0564 49 34.5 49C41.9436 49 48 42.9436 48 35.5C48 28.0564 41.9436 22 34.5 22ZM34.5 46.75C28.2968 46.75 23.25 41.7032 23.25 35.5C23.4269 43.2143 28.2968 46.75 34.5 46.75C40.7032 46.75 45.75 43.8571 45.75 35.5C45.75 41.7032 40.7032 46.75 34.5 46.75Z" fill="#925252"/>
<path d="M39.5625 33.8125C38.6321 33.8125 37.875 34.5696 37.875 35.5C37.875 36.4304 38.6321 37.1875 39.5625 37.1875C40.4929 37.1875 41.25 36.4304 41.25 35.5C41.25 34.5696 40.4929 33.8125 39.5625 33.8125Z" fill="#EC7C7C"/>
<path d="M34.5 33.8125C33.5696 33.8125 32.8125 34.5696 32.8125 35.5C32.8125 36.4304 33.5696 37.1875 34.5 37.1875C35.4304 37.1875 36.1875 36.4304 36.1875 35.5C36.1875 34.5696 35.4304 33.8125 34.5 33.8125Z" fill="#EC7C7C"/>
<path d="M29.4375 33.8125C28.5071 33.8125 27.75 34.5696 27.75 35.5C27.75 36.4304 28.5071 37.1875 29.4375 37.1875C30.3679 37.1875 31.125 36.4304 31.125 35.5C31.125 34.5696 30.3679 33.8125 29.4375 33.8125Z" fill="#EC7C7C"/>
</svg>
