<svg width="70" height="70" viewBox="0 0 70 70" fill="none" xmlns="http://www.w3.org/2000/svg">
<circle cx="35" cy="35" r="32.5" fill="#EC7C7C" stroke="#F9F9F9" stroke-width="5"/>
<path d="M34.8486 34.5475C36.435 34.5475 37.8087 33.9785 38.9311 32.8559C40.0535 31.7335 40.6225 30.3601 40.6225 28.7735C40.6225 27.1875 40.0535 25.814 38.931 24.6912C37.8084 23.569 36.4348 23 34.8486 23C33.262 23 31.8887 23.569 30.7663 24.6914C29.6439 25.8138 29.0747 27.1873 29.0747 28.7735C29.0747 30.3601 29.6439 31.7337 30.7665 32.8561C31.8891 33.9783 33.2626 34.5475 34.8486 34.5475Z" fill="#925252"/>
<path d="M44.9515 41.4334C44.9192 40.9662 44.8537 40.4567 44.7573 39.9186C44.66 39.3765 44.5347 38.8641 44.3848 38.3957C44.2298 37.9116 44.0191 37.4335 43.7587 36.9754C43.4884 36.4998 43.1709 36.0858 42.8146 35.745C42.4421 35.3886 41.9859 35.102 41.4585 34.8929C40.9328 34.685 40.3503 34.5797 39.7272 34.5797C39.4825 34.5797 39.2458 34.6801 38.7888 34.9776C38.5075 35.1611 38.1785 35.3732 37.8112 35.6079C37.4972 35.808 37.0718 35.9954 36.5464 36.1651C36.0337 36.331 35.5132 36.4152 34.9995 36.4152C34.4857 36.4152 33.9654 36.331 33.4522 36.1651C32.9273 35.9956 32.5019 35.8081 32.1882 35.6081C31.8244 35.3756 31.4952 35.1634 31.2097 34.9774C30.7532 34.6799 30.5164 34.5795 30.2717 34.5795C29.6484 34.5795 29.0661 34.685 28.5406 34.8931C28.0135 35.1018 27.5572 35.3884 27.1843 35.7452C26.8282 36.0861 26.5105 36.5 26.2406 36.9754C25.9803 37.4335 25.7696 37.9114 25.6145 38.3959C25.4647 38.8643 25.3394 39.3765 25.2421 39.9186C25.1458 40.456 25.0803 40.9657 25.0479 41.4339C25.0161 41.8926 25 42.3687 25 42.8495C25 44.1008 25.3978 45.1139 26.1822 45.861C26.9569 46.5982 27.9821 46.9722 29.2287 46.9722H40.7713C42.0179 46.9722 43.0427 46.5984 43.8176 45.861C44.6022 45.1144 45 44.1012 45 42.8493C44.9998 42.3663 44.9835 41.8899 44.9515 41.4334Z" fill="#925252"/>
</svg>
