<svg width="22" height="24" viewBox="0 0 22 24" fill="none" xmlns="http://www.w3.org/2000/svg">
<path d="M7.82523 18.2326C6.42882 18.2326 5.2959 19.3656 5.2959 20.762C5.2959 22.1584 6.42882 23.2913 7.82523 23.2913C9.22165 23.2913 10.3546 22.1584 10.3546 20.762C10.3546 19.3656 9.22165 18.2326 7.82523 18.2326Z" fill="#EC7C7C"/>
<path d="M17.3365 18.2326C15.9401 18.2326 14.8072 19.3656 14.8072 20.762C14.8072 22.1584 15.9401 23.2913 17.3365 23.2913C18.7329 23.2913 19.8659 22.1584 19.8659 20.762C19.8659 19.3656 18.7329 18.2326 17.3365 18.2326Z" fill="#EC7C7C"/>
<path d="M22 4.47935H5.13775L5.00602 3.68896C4.63712 1.52847 2.76651 -0.0260445 0.579647 0.000330593H0.526947C0.237124 0.000330593 0 0.237454 0 0.527278C0 0.817101 0.237124 1.05422 0.526947 1.05422H0.579647C2.23951 1.0279 3.68863 2.21352 3.97845 3.84706L5.69102 14.0171C5.95447 15.5189 7.29818 16.6255 8.82633 16.5991H19.3653C19.6551 16.5991 19.8922 16.362 19.8922 16.0722C19.8922 15.7824 19.6551 15.5452 19.3653 15.5452H8.82633C7.79881 15.5716 6.90296 14.8075 6.74491 13.8063L6.45509 12.1201H18.3377C19.2862 12.1201 20.103 11.4877 20.3665 10.5919L21.2096 7.64104H5.69102L5.50659 6.58714H21.4994L22 4.47935Z" fill="#EC7C7C"/>
</svg>
