<svg width="70" height="70" viewBox="0 0 70 70" fill="none" xmlns="http://www.w3.org/2000/svg">
<circle cx="35" cy="35" r="32.5" fill="#EC7C7C" stroke="#F9F9F9" stroke-width="5"/>
<path d="M29.7351 42.353C28.1763 42.353 26.9116 43.6177 26.9116 45.1765C26.9116 46.7353 28.1763 48 29.7351 48C31.2939 48 32.5586 46.7353 32.5586 45.1765C32.5586 43.6177 31.2939 42.353 29.7351 42.353Z" fill="#925252"/>
<path d="M40.3528 42.353C38.794 42.353 37.5293 43.6177 37.5293 45.1765C37.5293 46.7353 38.794 48 40.3528 48C41.9116 48 43.1763 46.7353 43.1763 45.1765C43.1763 43.6178 41.9116 42.353 40.3528 42.353Z" fill="#925252"/>
<path d="M45.5585 27.0003H26.7352L26.5882 26.118C26.1764 23.7062 24.0882 21.9709 21.6471 22.0004H21.5882C21.2647 22.0004 21 22.2651 21 22.5886C21 22.9121 21.2647 23.1768 21.5882 23.1768H21.6471C23.5 23.1474 25.1176 24.4709 25.4411 26.2945L27.3529 37.6472C27.647 39.3237 29.1469 40.5589 30.8528 40.5296H42.6174C42.9409 40.5296 43.2056 40.2649 43.2056 39.9413C43.2056 39.6178 42.9409 39.3531 42.6174 39.3531H30.8528C29.7058 39.3825 28.7058 38.5296 28.5293 37.4119L28.2058 35.5296H41.4704C42.5292 35.5296 43.4409 34.8237 43.7351 33.8237L44.6762 30.5297H27.3529L27.147 29.3532H44.9997L45.5585 27.0003Z" fill="#925252"/>
</svg>
