<svg width="21" height="17" viewBox="0 0 21 17" fill="none" xmlns="http://www.w3.org/2000/svg">
<path d="M12.7499 3.825C12.2807 3.825 11.8999 3.4442 11.8999 2.975V1.7H8.49993V2.975C8.49993 3.4442 8.11913 3.825 7.64993 3.825C7.18073 3.825 6.79993 3.4442 6.79993 2.975V1.7C6.79993 0.76245 7.56238 0 8.49993 0H11.8999C12.8375 0 13.5999 0.76245 13.5999 1.7V2.975C13.5999 3.4442 13.2191 3.825 12.7499 3.825Z" fill="#EC7C7C"/>
<path d="M15.3 8.925V9.707C15.3 10.0555 15.011 10.3445 14.6625 10.3445C14.314 10.3445 14.025 10.0555 14.025 9.707V8.925H6.375V9.707C6.375 10.0555 6.086 10.3445 5.7375 10.3445C5.389 10.3445 5.1 10.0555 5.1 9.707V8.925H0V14.6625C0 15.9545 1.0455 17 2.3375 17H18.0625C19.3545 17 20.4 15.9545 20.4 14.6625V8.925H15.3ZM18.0625 2.55H2.3375C1.0455 2.55 0 3.5955 0 4.8875V7.65H5.1V6.5875C5.1 6.239 5.389 5.95 5.7375 5.95C6.086 5.95 6.375 6.239 6.375 6.5875V7.65H14.025V6.5875C14.025 6.239 14.314 5.95 14.6625 5.95C15.011 5.95 15.3 6.239 15.3 6.5875V7.65H20.4V4.8875C20.4 3.5955 19.3545 2.55 18.0625 2.55Z" fill="#EC7C7C"/>
</svg>
