<svg width="30" height="33" viewBox="0 0 30 33" fill="none" xmlns="http://www.w3.org/2000/svg">
<path d="M7.60846 25.6767L8.92399 26.5454L8.09871 27.7952L6.78318 26.9265L7.60846 25.6767Z" fill="#EC7C7C"/>
<path d="M22.2871 5.01117L22.2641 4.91366L22.1653 4.93078C19.8684 5.32907 17.7533 6.17088 15.8997 7.35835L22.515 11.7268C22.8792 9.55581 22.8228 7.27998 22.2871 5.01117Z" fill="#EC7C7C"/>
<path d="M6.3695 12.8015L2.53785 18.6039L6.67767 19.7906C6.91269 17.359 7.63298 14.994 8.78832 12.8397L6.3695 12.8015Z" fill="#EC7C7C"/>
<path d="M16.788 15.802C17.2226 15.1438 17.0408 14.2548 16.3826 13.8202C15.7244 13.3855 14.8354 13.5674 14.4008 14.2256C13.9662 14.8837 14.148 15.7727 14.8062 16.2074C15.4644 16.642 16.3534 16.4601 16.788 15.802Z" fill="#EC7C7C"/>
<path d="M12.7344 24.3072C17.4977 22.194 20.8546 18.1242 22.1526 13.3767L14.5247 8.33955C10.6683 11.3976 8.24353 16.0829 8.17063 21.2935L9.79474 22.366L8.52062 24.2954L9.83615 25.1641L11.1103 23.2347L12.7344 24.3072ZM13.0853 13.3568C13.9989 11.9733 15.8678 11.591 17.2513 12.5046C18.6348 13.4182 19.0171 15.2871 18.1035 16.6707C17.1899 18.0542 15.321 18.4365 13.9375 17.5229C12.5539 16.6092 12.1717 14.7403 13.0853 13.3568Z" fill="#EC7C7C"/>
<path d="M6.61652 22.1564L7.93204 23.0251L6.76411 24.7938L5.44858 23.9251L6.61652 22.1564Z" fill="#EC7C7C"/>
<path d="M20.2664 20.4194C18.7389 22.3279 16.8467 23.919 14.7028 25.09L17.4197 28.4313L21.2514 22.6289L20.2664 20.4194Z" fill="#EC7C7C"/>
<path d="M11.2355 25.2066L12.551 26.0753L11.3831 27.8439L10.0675 26.9752L11.2355 25.2066Z" fill="#EC7C7C"/>
</svg>
