<svg width="18" height="24" viewBox="0 0 18 24" fill="none" xmlns="http://www.w3.org/2000/svg">
<path d="M12.3333 2.89847V0.512024H5.66674V2.89847H0V6.95538H18V2.89847H12.3333ZM10.9647 2.89847H7.0353V1.88058H10.9647V2.89847Z" fill="#EC7C7C"/>
<path d="M0.900513 8.32394L2.20402 23.8687H15.7958L17.0994 8.32394H0.900513ZM6.41566 16.0918C6.41566 17.0862 6.97093 17.9761 7.86483 18.414L7.26271 19.643C5.89607 18.9734 5.04715 17.6126 5.04715 16.0917C5.04715 14.7657 5.70625 13.5768 6.7287 12.857L6.24386 12.6695L6.73755 11.3931L9.48607 12.4562L8.42297 15.2046L7.14656 14.7109L7.3966 14.0645C6.79603 14.5407 6.41566 15.2768 6.41566 16.0918ZM11.2712 19.3357L11.756 19.5232L11.2623 20.7996L8.5138 19.7365L9.57689 16.988L10.8533 17.4817L10.6033 18.1281C11.2039 17.652 11.5842 16.916 11.5842 16.1009C11.5842 15.1065 11.0289 14.2167 10.135 13.7787L10.7372 12.5497C12.1038 13.2193 12.9527 14.5801 12.9527 16.1009C12.9527 17.4269 12.2936 18.6159 11.2712 19.3357Z" fill="#EC7C7C"/>
</svg>
