<svg width="259" height="44" viewBox="0 0 259 44" fill="none" xmlns="http://www.w3.org/2000/svg">
<path d="M56.7598 36H39.5156V9.82617H56.7598V12.9199H42.9961V20.0918H56.7598V23.1855H42.9961V32.9062H56.7598V36ZM77.291 36H74.0039V33.9082C73.7109 34.1074 73.3125 34.3887 72.8086 34.752C72.3164 35.1035 71.8359 35.3848 71.3672 35.5957C70.8164 35.8652 70.1836 36.0879 69.4688 36.2637C68.7539 36.4512 67.916 36.5449 66.9551 36.5449C65.1855 36.5449 63.6855 35.959 62.4551 34.7871C61.2246 33.6152 60.6094 32.1211 60.6094 30.3047C60.6094 28.8164 60.9258 27.6152 61.5586 26.7012C62.2031 25.7754 63.1172 25.0488 64.3008 24.5215C65.4961 23.9941 66.9316 23.6367 68.6074 23.4492C70.2832 23.2617 72.082 23.1211 74.0039 23.0273V22.5176C74.0039 21.7676 73.8691 21.1465 73.5996 20.6543C73.3418 20.1621 72.9668 19.7754 72.4746 19.4941C72.0059 19.2246 71.4434 19.043 70.7871 18.9492C70.1309 18.8555 69.4453 18.8086 68.7305 18.8086C67.8633 18.8086 66.8965 18.9258 65.8301 19.1602C64.7637 19.3828 63.6621 19.7109 62.5254 20.1445H62.3496V16.7871C62.9941 16.6113 63.9258 16.418 65.1445 16.207C66.3633 15.9961 67.5645 15.8906 68.748 15.8906C70.1309 15.8906 71.332 16.0078 72.3516 16.2422C73.3828 16.4648 74.2734 16.8516 75.0234 17.4023C75.7617 17.9414 76.3242 18.6387 76.7109 19.4941C77.0977 20.3496 77.291 21.4102 77.291 22.6758V36ZM74.0039 31.166V25.6992C72.9961 25.7578 71.8066 25.8457 70.4355 25.9629C69.0762 26.0801 67.998 26.25 67.2012 26.4727C66.252 26.7422 65.4844 27.1641 64.8984 27.7383C64.3125 28.3008 64.0195 29.0801 64.0195 30.0762C64.0195 31.2012 64.3594 32.0508 65.0391 32.625C65.7188 33.1875 66.7559 33.4688 68.1504 33.4688C69.3105 33.4688 70.3711 33.2461 71.332 32.8008C72.293 32.3438 73.1836 31.7988 74.0039 31.166ZM97.6816 30.3398C97.6816 32.1328 96.9375 33.6035 95.4492 34.752C93.9727 35.9004 91.9512 36.4746 89.3848 36.4746C87.9316 36.4746 86.5957 36.3047 85.377 35.9648C84.1699 35.6133 83.1562 35.2324 82.3359 34.8223V31.1133H82.5117C83.5547 31.8984 84.7148 32.5254 85.9922 32.9941C87.2695 33.4512 88.4941 33.6797 89.666 33.6797C91.1191 33.6797 92.2559 33.4453 93.0762 32.9766C93.8965 32.5078 94.3066 31.7695 94.3066 30.7617C94.3066 29.9883 94.084 29.4023 93.6387 29.0039C93.1934 28.6055 92.3379 28.2656 91.0723 27.9844C90.6035 27.8789 89.9883 27.7559 89.2266 27.6152C88.4766 27.4746 87.791 27.3223 87.1699 27.1582C85.4473 26.7012 84.2227 26.0332 83.4961 25.1543C82.7812 24.2637 82.4238 23.1738 82.4238 21.8848C82.4238 21.0762 82.5879 20.3145 82.916 19.5996C83.2559 18.8848 83.7656 18.2461 84.4453 17.6836C85.1016 17.1328 85.9336 16.6992 86.9414 16.3828C87.9609 16.0547 89.0977 15.8906 90.3516 15.8906C91.5234 15.8906 92.707 16.0371 93.9023 16.3301C95.1094 16.6113 96.1113 16.957 96.9082 17.3672V20.9004H96.7324C95.8887 20.2793 94.8633 19.7578 93.6562 19.3359C92.4492 18.9023 91.2656 18.6855 90.1055 18.6855C88.8984 18.6855 87.8789 18.9199 87.0469 19.3887C86.2148 19.8457 85.7988 20.5312 85.7988 21.4453C85.7988 22.2539 86.0508 22.8633 86.5547 23.2734C87.0469 23.6836 87.8438 24.0176 88.9453 24.2754C89.5547 24.416 90.2344 24.5566 90.9844 24.6973C91.7461 24.8379 92.3789 24.9668 92.8828 25.084C94.418 25.4355 95.6016 26.0391 96.4336 26.8945C97.2656 27.7617 97.6816 28.9102 97.6816 30.3398ZM119.408 16.3652L107.947 43.2422H104.414L108.07 35.0508L100.248 16.3652H103.834L109.863 30.9199L115.945 16.3652H119.408ZM142.664 12.9199H133.312V36H129.832V12.9199H120.48V9.82617H142.664V12.9199ZM156.955 36H153.668V33.9082C153.375 34.1074 152.977 34.3887 152.473 34.752C151.98 35.1035 151.5 35.3848 151.031 35.5957C150.48 35.8652 149.848 36.0879 149.133 36.2637C148.418 36.4512 147.58 36.5449 146.619 36.5449C144.85 36.5449 143.35 35.959 142.119 34.7871C140.889 33.6152 140.273 32.1211 140.273 30.3047C140.273 28.8164 140.59 27.6152 141.223 26.7012C141.867 25.7754 142.781 25.0488 143.965 24.5215C145.16 23.9941 146.596 23.6367 148.271 23.4492C149.947 23.2617 151.746 23.1211 153.668 23.0273V22.5176C153.668 21.7676 153.533 21.1465 153.264 20.6543C153.006 20.1621 152.631 19.7754 152.139 19.4941C151.67 19.2246 151.107 19.043 150.451 18.9492C149.795 18.8555 149.109 18.8086 148.395 18.8086C147.527 18.8086 146.561 18.9258 145.494 19.1602C144.428 19.3828 143.326 19.7109 142.189 20.1445H142.014V16.7871C142.658 16.6113 143.59 16.418 144.809 16.207C146.027 15.9961 147.229 15.8906 148.412 15.8906C149.795 15.8906 150.996 16.0078 152.016 16.2422C153.047 16.4648 153.938 16.8516 154.688 17.4023C155.426 17.9414 155.988 18.6387 156.375 19.4941C156.762 20.3496 156.955 21.4102 156.955 22.6758V36ZM153.668 31.166V25.6992C152.66 25.7578 151.471 25.8457 150.1 25.9629C148.74 26.0801 147.662 26.25 146.865 26.4727C145.916 26.7422 145.148 27.1641 144.562 27.7383C143.977 28.3008 143.684 29.0801 143.684 30.0762C143.684 31.2012 144.023 32.0508 144.703 32.625C145.383 33.1875 146.42 33.4688 147.814 33.4688C148.975 33.4688 150.035 33.2461 150.996 32.8008C151.957 32.3438 152.848 31.7988 153.668 31.166ZM177.346 30.3398C177.346 32.1328 176.602 33.6035 175.113 34.752C173.637 35.9004 171.615 36.4746 169.049 36.4746C167.596 36.4746 166.26 36.3047 165.041 35.9648C163.834 35.6133 162.82 35.2324 162 34.8223V31.1133H162.176C163.219 31.8984 164.379 32.5254 165.656 32.9941C166.934 33.4512 168.158 33.6797 169.33 33.6797C170.783 33.6797 171.92 33.4453 172.74 32.9766C173.561 32.5078 173.971 31.7695 173.971 30.7617C173.971 29.9883 173.748 29.4023 173.303 29.0039C172.857 28.6055 172.002 28.2656 170.736 27.9844C170.268 27.8789 169.652 27.7559 168.891 27.6152C168.141 27.4746 167.455 27.3223 166.834 27.1582C165.111 26.7012 163.887 26.0332 163.16 25.1543C162.445 24.2637 162.088 23.1738 162.088 21.8848C162.088 21.0762 162.252 20.3145 162.58 19.5996C162.92 18.8848 163.43 18.2461 164.109 17.6836C164.766 17.1328 165.598 16.6992 166.605 16.3828C167.625 16.0547 168.762 15.8906 170.016 15.8906C171.188 15.8906 172.371 16.0371 173.566 16.3301C174.773 16.6113 175.775 16.957 176.572 17.3672V20.9004H176.396C175.553 20.2793 174.527 19.7578 173.32 19.3359C172.113 18.9023 170.93 18.6855 169.77 18.6855C168.562 18.6855 167.543 18.9199 166.711 19.3887C165.879 19.8457 165.463 20.5312 165.463 21.4453C165.463 22.2539 165.715 22.8633 166.219 23.2734C166.711 23.6836 167.508 24.0176 168.609 24.2754C169.219 24.416 169.898 24.5566 170.648 24.6973C171.41 24.8379 172.043 24.9668 172.547 25.084C174.082 25.4355 175.266 26.0391 176.098 26.8945C176.93 27.7617 177.346 28.9102 177.346 30.3398ZM199.916 36H195.557L187.682 27.4043L185.537 29.4434V36H182.232V8.64844H185.537V26.1914L195.082 16.3652H199.248L190.125 25.4355L199.916 36ZM206.947 13.0781H203.221V9.65039H206.947V13.0781ZM206.736 36H203.432V16.3652H206.736V36ZM229.693 36H226.389V24.8203C226.389 23.918 226.336 23.0742 226.23 22.2891C226.125 21.4922 225.932 20.8711 225.65 20.4258C225.357 19.9336 224.936 19.5703 224.385 19.3359C223.834 19.0898 223.119 18.9668 222.24 18.9668C221.338 18.9668 220.395 19.1895 219.41 19.6348C218.426 20.0801 217.482 20.6484 216.58 21.3398V36H213.275V16.3652H216.58V18.5449C217.611 17.6895 218.678 17.0215 219.779 16.541C220.881 16.0605 222.012 15.8203 223.172 15.8203C225.293 15.8203 226.91 16.459 228.023 17.7363C229.137 19.0137 229.693 20.8535 229.693 23.2559V36ZM251.982 33.7676C251.982 37.0957 251.227 39.5391 249.715 41.0977C248.203 42.6562 245.877 43.4355 242.736 43.4355C241.693 43.4355 240.674 43.3594 239.678 43.207C238.693 43.0664 237.721 42.8613 236.76 42.5918V39.2168H236.936C237.475 39.4277 238.33 39.6855 239.502 39.9902C240.674 40.3066 241.846 40.4648 243.018 40.4648C244.143 40.4648 245.074 40.3301 245.812 40.0605C246.551 39.791 247.125 39.416 247.535 38.9355C247.945 38.4785 248.238 37.9277 248.414 37.2832C248.59 36.6387 248.678 35.918 248.678 35.1211V33.3281C247.682 34.125 246.727 34.7227 245.812 35.1211C244.91 35.5078 243.756 35.7012 242.35 35.7012C240.006 35.7012 238.143 34.8574 236.76 33.1699C235.389 31.4707 234.703 29.0801 234.703 25.998C234.703 24.3105 234.938 22.8574 235.406 21.6387C235.887 20.4082 236.537 19.3477 237.357 18.457C238.119 17.625 239.045 16.9805 240.135 16.5234C241.225 16.0547 242.309 15.8203 243.387 15.8203C244.523 15.8203 245.473 15.9375 246.234 16.1719C247.008 16.3945 247.822 16.7402 248.678 17.209L248.889 16.3652H251.982V33.7676ZM248.678 30.6035V19.8984C247.799 19.5 246.979 19.2188 246.217 19.0547C245.467 18.8789 244.717 18.791 243.967 18.791C242.15 18.791 240.721 19.4004 239.678 20.6191C238.635 21.8379 238.113 23.6074 238.113 25.9277C238.113 28.1309 238.5 29.8008 239.273 30.9375C240.047 32.0742 241.33 32.6426 243.123 32.6426C244.084 32.6426 245.045 32.4609 246.006 32.0977C246.979 31.7227 247.869 31.2246 248.678 30.6035Z" fill="black"/>
<rect x="1" y="5" width="25.5581" height="32" rx="8" stroke="#EC7C7C" stroke-width="2"/>
<line x1="8.73291" y1="14.6875" x2="19.964" y2="14.6875" stroke="#EC7C7C" stroke-width="2" stroke-linecap="round"/>
<line x1="8.73285" y1="21.0131" x2="19.964" y2="21.0131" stroke="#EC7C7C" stroke-width="2" stroke-linecap="round"/>
<line x1="8.73285" y1="27.3387" x2="19.964" y2="27.3387" stroke="#EC7C7C" stroke-width="2" stroke-linecap="round"/>
</svg>
