<svg width="20" height="20" viewBox="0 0 20 20" fill="none" xmlns="http://www.w3.org/2000/svg">
<path d="M19.375 8.75H17.1613L11.77 2.46875C11.8325 2.28125 11.875 2.08375 11.875 1.875C11.875 0.84125 11.0337 0 10 0C8.96625 0 8.125 0.84125 8.125 1.875C8.125 2.08375 8.1675 2.28125 8.23 2.46875L2.8375 8.75H0.625C0.28 8.75 0 9.03 0 9.375V19.375C0 19.72 0.28 20 0.625 20H19.375C19.72 20 20 19.72 20 19.375V9.375C20 9.03 19.72 8.75 19.375 8.75ZM10 1.25C10.345 1.25 10.625 1.53 10.625 1.875C10.625 2.22 10.345 2.5 10 2.5C9.655 2.5 9.375 2.22 9.375 1.875C9.375 1.53 9.655 1.25 10 1.25ZM9.02125 3.46625C9.30625 3.6425 9.64 3.75 10 3.75C10.36 3.75 10.6938 3.6425 10.9788 3.46625L15.515 8.75H4.485L9.02125 3.46625ZM7.5 16.875C7.5 17.1637 7.3 17.4175 7.01875 17.4825C6.97125 17.495 6.9225 17.5 6.875 17.5C6.6425 17.5 6.42375 17.37 6.31625 17.155L5 14.5225V16.875C5 17.22 4.72 17.5 4.375 17.5C4.03 17.5 3.75 17.22 3.75 16.875V11.875C3.75 11.5863 3.95 11.3325 4.23125 11.2675C4.51125 11.195 4.80375 11.3375 4.93375 11.5963L6.25 14.2275V11.875C6.25 11.53 6.53 11.25 6.875 11.25C7.22 11.25 7.5 11.53 7.5 11.875V16.875ZM10.625 13.75C10.97 13.75 11.25 14.03 11.25 14.375C11.25 14.72 10.97 15 10.625 15H10V16.25H10.625C10.97 16.25 11.25 16.53 11.25 16.875C11.25 17.22 10.97 17.5 10.625 17.5H9.375C9.03 17.5 8.75 17.22 8.75 16.875V11.875C8.75 11.53 9.03 11.25 9.375 11.25H10.625C10.97 11.25 11.25 11.53 11.25 11.875C11.25 12.22 10.97 12.5 10.625 12.5H10V13.75H10.625ZM16.25 16.875C16.25 17.1637 16.0513 17.4175 15.7687 17.4825C15.72 17.495 15.6725 17.5 15.625 17.5C15.3912 17.5 15.1738 17.37 15.0663 17.155L14.375 15.7725L13.6837 17.1537C13.5537 17.4125 13.2675 17.5538 12.98 17.4825C12.6987 17.4175 12.5 17.1637 12.5 16.875V11.875C12.5 11.53 12.78 11.25 13.125 11.25C13.47 11.25 13.75 11.53 13.75 11.875V14.2275L13.8163 14.0963C14.0288 13.6738 14.7225 13.6738 14.935 14.0963L15 14.2275V11.875C15 11.53 15.28 11.25 15.625 11.25C15.97 11.25 16.25 11.53 16.25 11.875V16.875Z" fill="#EC7C7C"/>
</svg>
