<svg width="70" height="70" viewBox="0 0 70 70" fill="none" xmlns="http://www.w3.org/2000/svg">
<circle cx="35" cy="35" r="32.5" fill="#EC7C7C" stroke="#F9F9F9" stroke-width="5"/>
<path d="M38.6116 28.6944C38.0903 28.6944 37.6672 28.2713 37.6672 27.75V26.3333H33.8894V27.75C33.8894 28.2713 33.4663 28.6944 32.9449 28.6944C32.4236 28.6944 32.0005 28.2713 32.0005 27.75V26.3333C32.0005 25.2916 32.8477 24.4444 33.8894 24.4444H37.6672C38.7089 24.4444 39.556 25.2916 39.556 26.3333V27.75C39.556 28.2713 39.1329 28.6944 38.6116 28.6944Z" fill="#925252"/>
<path d="M41.4448 34.3611V35.23C41.4448 35.6172 41.1237 35.9383 40.7365 35.9383C40.3493 35.9383 40.0282 35.6172 40.0282 35.23V34.3611H31.5282V35.23C31.5282 35.6172 31.207 35.9383 30.8198 35.9383C30.4326 35.9383 30.1115 35.6172 30.1115 35.23V34.3611H24.4448V40.7361C24.4448 42.1716 25.6065 43.3333 27.042 43.3333H44.5143C45.9498 43.3333 47.1115 42.1716 47.1115 40.7361V34.3611H41.4448ZM44.5143 27.2777H27.042C25.6065 27.2777 24.4448 28.4394 24.4448 29.875V32.9444H30.1115V31.7639C30.1115 31.3766 30.4326 31.0555 30.8198 31.0555C31.207 31.0555 31.5282 31.3766 31.5282 31.7639V32.9444H40.0282V31.7639C40.0282 31.3766 40.3493 31.0555 40.7365 31.0555C41.1237 31.0555 41.4448 31.3766 41.4448 31.7639V32.9444H47.1115V29.875C47.1115 28.4394 45.9498 27.2777 44.5143 27.2777Z" fill="#925252"/>
</svg>
