<svg width="290" height="308" viewBox="0 0 290 308" fill="none" xmlns="http://www.w3.org/2000/svg">
<path d="M290 0L0 0L0 192.414H290V0Z" fill="#F1F1F1"/>
<path d="M72.7709 307.612C104.435 307.612 130.105 303.851 130.105 299.213C130.105 294.574 104.435 290.813 72.7709 290.813C41.1064 290.813 15.4373 294.574 15.4373 299.213C15.4373 303.851 41.1064 307.612 72.7709 307.612Z" fill="#F1F1F1"/>
<path d="M61.1565 236.378L75.5501 231.869C74.7535 225.883 72.935 220.078 70.1739 214.707L55.7803 219.217C59.1579 224.314 61.022 230.265 61.1565 236.378Z" fill="#EC7C7C"/>
<path d="M84.6571 12.1293H18.1938V94.6605H84.6571V12.1293Z" fill="#3F3D56"/>
<path d="M47.2702 42.8537H32.1868C31.1575 36.9032 31.1575 30.8202 32.1868 24.8697H47.2702C45.5709 30.7439 45.5709 36.9795 47.2702 42.8537Z" fill="#FF6584"/>
<path d="M55.5808 51.9751H70.6642C71.6935 46.0246 71.6935 39.9416 70.6642 33.9911H55.5808C57.2801 39.8653 57.2801 46.1009 55.5808 51.9751Z" fill="#EC7C7C"/>
<path d="M41.3386 81.9201H56.422C57.4513 75.9696 57.4513 69.8865 56.422 63.936H41.3386C43.0379 69.8103 43.0379 76.0458 41.3386 81.9201Z" fill="#EC7C7C"/>
<path d="M278.973 13.4572H212.51V95.9885H278.973V13.4572Z" fill="#3F3D56"/>
<path d="M269.479 30.986H222.005V33.1771H269.479V30.986Z" fill="#EC7C7C"/>
<path d="M269.479 38.6548H222.005V40.8459H269.479V38.6548Z" fill="#EC7C7C"/>
<path d="M269.479 46.3237H222.005V48.5148H269.479V46.3237Z" fill="#EC7C7C"/>
<path d="M269.479 53.9925H222.005V56.1836H269.479V53.9925Z" fill="#EC7C7C"/>
<path d="M269.479 61.6614H222.005V63.8525H269.479V61.6614Z" fill="#EC7C7C"/>
<path d="M258.158 69.6954H233.326V78.4598H258.158V69.6954Z" fill="#EC7C7C"/>
<path d="M180.595 65.0997H114.131V147.631H180.595V65.0997Z" fill="#3F3D56"/>
<path d="M171.208 111.042H123.735V113.233H171.208V111.042Z" fill="#EC7C7C"/>
<path d="M171.208 118.711H123.735V120.902H171.208V118.711Z" fill="#EC7C7C"/>
<path d="M171.208 126.38H123.735V128.571H171.208V126.38Z" fill="#EC7C7C"/>
<path d="M171.208 134.048H123.735V136.24H171.208V134.048Z" fill="#EC7C7C"/>
<path opacity="0.3" d="M138.278 94.4752H123.194C122.165 88.5247 122.165 82.4416 123.194 76.4911H138.278C136.578 82.3654 136.578 88.6009 138.278 94.4752Z" fill="#EC7C7C"/>
<path opacity="0.3" d="M172.304 78.1755H144.55V80.0014H172.304V78.1755Z" fill="#EC7C7C"/>
<path opacity="0.3" d="M172.304 84.7488H144.55V86.5747H172.304V84.7488Z" fill="#EC7C7C"/>
<path opacity="0.3" d="M172.304 91.3221H144.55V93.148H172.304V91.3221Z" fill="#EC7C7C"/>
<path opacity="0.3" d="M172.304 97.8954H144.55V99.7213H172.304V97.8954Z" fill="#EC7C7C"/>
<path d="M68.4619 130.554C75.8838 130.554 81.9005 124.537 81.9005 117.115C81.9005 109.693 75.8838 103.677 68.4619 103.677C61.0399 103.677 55.0232 109.693 55.0232 117.115C55.0232 124.537 61.0399 130.554 68.4619 130.554Z" fill="#2F2E41"/>
<path d="M53.964 285.518L51.4077 296.474H57.6158L60.1721 284.057L53.964 285.518Z" fill="#9F616A"/>
<path d="M83.9089 285.518V295.743L90.117 296.474V285.518H83.9089Z" fill="#9F616A"/>
<path d="M52.1379 169.39C52.1379 169.39 52.8683 185.093 53.5987 186.189C54.329 187.284 60.9023 202.987 60.9023 202.987L64.189 192.762C64.189 192.762 59.0764 184.363 59.8068 179.615C60.5371 174.868 60.077 169.026 60.077 169.026L52.1379 169.39Z" fill="#9F616A"/>
<path d="M72.9536 131.411C78.6008 131.411 83.1787 126.833 83.1787 121.186C83.1787 115.539 78.6008 110.961 72.9536 110.961C67.3065 110.961 62.7285 115.539 62.7285 121.186C62.7285 126.833 67.3065 131.411 72.9536 131.411Z" fill="#9F616A"/>
<path d="M64.5545 122.282C64.5545 122.282 64.9196 136.889 62.3634 139.08C59.8071 141.271 76.9707 139.445 76.9707 139.445C76.9707 139.445 73.3188 129.22 76.2403 127.029C79.1618 124.838 64.5545 122.282 64.5545 122.282Z" fill="#9F616A"/>
<path d="M78.066 138.715C78.066 138.715 75.8749 134.698 72.9534 135.063C70.032 135.428 60.5372 136.159 60.172 136.889C59.8069 137.619 58.7113 140.176 57.9809 140.906C57.2506 141.636 51.7728 142.732 51.4077 147.114C51.0425 151.496 64.5542 178.155 64.5542 178.155C64.5542 178.155 62.7283 184.363 63.0935 185.823C63.4587 187.284 61.2676 191.666 61.6328 193.492C61.998 195.318 56.155 206.274 59.0765 220.516V243.522C59.0765 243.522 49.2166 283.327 52.138 286.249C55.0595 289.17 64.9194 287.344 66.7453 286.249C68.5712 285.153 76.2401 230.01 76.2401 230.01L79.8919 211.386L80.2571 252.287C80.2571 252.287 79.5267 286.614 82.083 287.709C84.6393 288.805 94.4992 289.17 95.2296 286.979C95.7992 285.27 98.5901 239.802 99.791 219.871C100.207 212.991 99.6659 206.087 98.1832 199.356C96.6632 192.463 94.4567 184.363 91.9429 181.076C87.1956 174.868 84.2741 155.148 84.2741 155.148L90.4822 143.827C90.4822 143.827 86.8304 140.176 84.6393 140.176C82.4482 140.176 78.066 138.715 78.066 138.715Z" fill="#2F2E41"/>
<path d="M53.5988 144.558L51.673 145.869C51.673 145.869 50.3122 169.39 51.4077 170.851C52.5033 172.312 60.12 171.599 60.6938 170.312C61.2677 169.025 53.5988 144.558 53.5988 144.558Z" fill="#2F2E41"/>
<path d="M83.5437 166.469C83.5437 166.469 83.9089 181.806 86.1 186.189C88.2911 190.571 96.3251 208.83 96.3251 208.83C96.3251 208.83 95.8588 228.926 99.9263 223.991C103.994 219.055 101.438 207.369 101.438 207.369L94.4992 180.346C94.4992 180.346 90.8474 168.295 91.2125 164.643C91.5777 160.991 83.5437 166.469 83.5437 166.469Z" fill="#9F616A"/>
<path d="M90.1171 289.827C90.1171 289.827 90.4823 289.535 91.5778 290.631C92.6734 291.726 95.5949 293.187 95.2297 297.204C94.8645 301.221 92.6734 301.951 92.6734 301.951V300.856H91.5778V302.682C91.5778 302.682 89.7519 308.525 81.3527 304.873C81.3527 304.873 80.9876 301.951 81.3527 300.126C81.7179 298.3 81.7179 289.535 82.8135 289.9C83.909 290.266 86.8305 290.631 87.5608 292.092C88.2912 293.552 90.4823 293.04 90.1171 289.827Z" fill="#2F2E41"/>
<path d="M52.5033 290.192C52.5033 290.192 52.1381 289.9 51.0426 290.996C49.947 292.091 47.0256 293.552 47.3907 297.569C47.7559 301.586 49.947 302.317 49.947 302.317V301.221H51.0426V303.047C51.0426 303.047 52.8685 308.89 61.2677 305.238C61.2677 305.238 61.6329 302.317 61.2677 300.491C60.9025 298.665 60.9025 289.9 59.807 290.266C58.7114 290.631 55.7899 290.996 55.0596 292.457C54.3292 293.917 52.1381 293.406 52.5033 290.192Z" fill="#2F2E41"/>
<path d="M85.3697 142.732L90.4822 143.827C90.4822 143.827 90.4822 151.861 91.9429 155.148C93.4037 158.435 95.96 166.103 94.8644 166.469C93.7689 166.834 83.5437 171.946 82.8134 169.025C82.083 166.103 80.2571 142.732 85.3697 142.732Z" fill="#2F2E41"/>
<path d="M53.903 112.86C61.325 112.86 67.3417 106.843 67.3417 99.4211C67.3417 91.9991 61.325 85.9824 53.903 85.9824C46.481 85.9824 40.4644 91.9991 40.4644 99.4211C40.4644 106.843 46.481 112.86 53.903 112.86Z" fill="#2F2E41"/>
<path d="M42.3117 110.549C44.0511 111.806 46.0663 112.629 48.1886 112.947C50.311 113.266 52.4788 113.072 54.5107 112.381C56.5425 111.69 58.3794 110.523 59.8676 108.976C61.3558 107.43 62.452 105.55 63.0646 103.493C62.8328 105.336 62.2214 107.111 61.2689 108.706C60.3165 110.301 59.0436 111.682 57.5308 112.76C56.018 113.838 54.298 114.591 52.4795 114.971C50.661 115.351 48.7834 115.35 46.9653 114.968C45.1472 114.586 43.4282 113.831 41.9166 112.751C40.4051 111.671 39.1339 110.289 38.1833 108.693C37.2327 107.096 36.6234 105.32 36.3938 103.477C36.1642 101.633 36.3193 99.7622 36.8494 97.9816C36.5484 100.374 36.8967 102.803 37.8577 105.014C38.8188 107.225 40.3573 109.137 42.3117 110.549Z" fill="#2F2E41"/>
<path d="M64.8782 129.21C70.321 129.21 74.7332 124.798 74.7332 119.355C74.7332 113.912 70.321 109.5 64.8782 109.5C59.4354 109.5 55.0232 113.912 55.0232 119.355C55.0232 124.798 59.4354 129.21 64.8782 129.21Z" fill="#2F2E41"/>
<path d="M73.1653 122.491C77.9896 122.491 81.9004 119.432 81.9004 115.659C81.9004 111.887 77.9896 108.828 73.1653 108.828C68.341 108.828 64.4302 111.887 64.4302 115.659C64.4302 119.432 68.341 122.491 73.1653 122.491Z" fill="#2F2E41"/>
<path d="M75.4953 125.593C76.4109 125.593 77.1531 124.279 77.1531 122.659C77.1531 121.04 76.4109 119.726 75.4953 119.726C74.5796 119.726 73.8374 121.04 73.8374 122.659C73.8374 124.279 74.5796 125.593 75.4953 125.593Z" fill="#A0616A"/>
</svg>
