<svg width="10" height="13" viewBox="0 0 10 13" fill="none" xmlns="http://www.w3.org/2000/svg">
<path d="M6.85181 1.3258V0H3.14819V1.3258H0V3.57964H10V1.3258H6.85181ZM6.09153 1.3258H3.9085V0.76031H6.09153V1.3258Z" fill="#EC7C7C"/>
<path d="M0.500244 4.34009L1.22441 12.9761H8.77543L9.4996 4.34009H0.500244V4.34009ZM3.56422 8.65556C3.56422 9.20802 3.8727 9.70238 4.36931 9.94567L4.0348 10.6284C3.27555 10.2564 2.80393 9.50046 2.80393 8.65553C2.80393 7.91884 3.1701 7.25833 3.73812 6.85846L3.46877 6.7543L3.74304 6.04518L5.27 6.63577L4.67939 8.1627L3.97027 7.88843L4.10918 7.52928C3.77553 7.79385 3.56422 8.20279 3.56422 8.65556ZM6.26172 10.4577L6.53107 10.5619L6.2568 11.271L4.72985 10.6804L5.32046 9.15346L6.02957 9.42773L5.89066 9.78687C6.22434 9.52236 6.43563 9.11344 6.43563 8.66065C6.43563 8.10818 6.12714 7.61383 5.63054 7.3705L5.96505 6.68775C6.72429 7.05974 7.19591 7.81572 7.19591 8.66065C7.19591 9.39731 6.82972 10.0578 6.26172 10.4577Z" fill="#EC7C7C"/>
</svg>
