<svg width="11" height="12" viewBox="0 0 11 12" fill="none" xmlns="http://www.w3.org/2000/svg">
<path d="M5.49997 2.28271C6.13017 2.28271 6.64104 1.77187 6.64104 1.14172C6.64104 0.51157 6.13017 0.000732422 5.49997 0.000732422C4.86977 0.000732422 4.35889 0.51157 4.35889 1.14172C4.35889 1.77187 4.86977 2.28271 5.49997 2.28271Z" fill="#EC7C7C"/>
<path d="M10.7995 0.200516C10.5321 -0.0668387 10.0986 -0.0668387 9.83124 0.200516L7.01524 3.01631C6.92963 3.10189 6.81354 3.14998 6.6925 3.14998H4.30753C4.18648 3.14998 4.07039 3.10189 3.98478 3.01631L1.16876 0.200516C0.901384 -0.0668387 0.467888 -0.0668387 0.200533 0.200516C-0.0668444 0.467871 -0.0668444 0.901321 0.200533 1.16868L3.44606 4.41397V10.9858C3.44606 11.3588 3.73854 11.6742 4.11147 11.6844C4.49836 11.695 4.81535 11.3845 4.81535 11.0001V7.94219H6.18465V10.9858C6.18465 11.3588 6.47713 11.6742 6.85006 11.6844C7.23695 11.695 7.55394 11.3845 7.55394 11.0001V4.41397L10.7995 1.1687C11.0668 0.901344 11.0668 0.467871 10.7995 0.200516V0.200516Z" fill="#EC7C7C"/>
</svg>
