<svg width="60" height="60" viewBox="0 0 60 60" fill="none" xmlns="http://www.w3.org/2000/svg">
<path d="M30 60C46.5685 60 60 46.5685 60 30C60 13.4315 46.5685 0 30 0C13.4315 0 0 13.4315 0 30C0 46.5685 13.4315 60 30 60Z" fill="#DC4E41"/>
<path d="M10.4446 31.3433C10.3382 36.505 13.8934 41.4308 18.7839 43.0373C23.3905 44.5849 29.0544 43.4271 32.1197 39.4821C34.3578 36.7178 34.8663 33.0326 34.6241 29.5897C30.679 29.5544 26.734 29.5662 22.7948 29.5721C22.7884 30.9775 22.7948 32.3775 22.8007 33.7829C25.1628 33.8482 27.5254 33.8182 29.8875 33.8658C29.2913 35.9092 27.9329 37.8109 25.8714 38.5489C21.891 40.303 16.8122 38.0114 15.5598 33.8359C14.0479 29.8373 16.5229 25.012 20.6091 23.8489C23.1429 22.9574 25.7532 23.9612 27.9212 25.2784C29.0196 24.2505 30.0474 23.1521 31.0571 22.0419C28.5939 19.9808 25.4286 18.7172 22.1744 18.9947C15.7897 19.0707 10.2024 24.965 10.4446 31.3433Z" fill="#DC4E41"/>
<path d="M42.3019 26.0271C42.2901 27.2025 42.2778 28.3839 42.2719 29.5588C41.0906 29.5705 39.9157 29.5764 38.7402 29.5823C38.7402 30.7578 38.7402 31.9268 38.7402 33.1022C39.9157 33.1081 41.097 33.114 42.2719 33.1263C42.2837 34.3017 42.2837 35.4766 42.2954 36.658C43.465 36.658 44.6404 36.6521 45.8154 36.658C45.8218 35.4766 45.8271 34.3017 45.8394 33.1204C47.0143 33.1145 48.1957 33.1086 49.3711 33.1028C49.3711 31.9273 49.3711 30.7583 49.3711 29.5828C48.1962 29.577 47.0149 29.5711 45.8394 29.5593C45.833 28.3839 45.8218 27.2025 45.8154 26.0276C44.6404 26.0271 43.4709 26.0271 42.3019 26.0271Z" fill="#DC4E41"/>
<path d="M46.875 27.25V22.125H44.3125V27.25H39.1875V29.8125H44.3125V34.9375H46.875V29.8125H52V27.25H46.875Z" fill="white"/>
<path d="M23.8125 27.25V32.375H31.0618C30.0035 35.3577 27.154 37.5 23.8125 37.5C19.5741 37.5 16.125 34.0509 16.125 29.8125C16.125 25.5741 19.5741 22.125 23.8125 22.125C25.6498 22.125 27.4179 22.7836 28.7914 23.9802L32.1586 20.116C29.8523 18.107 26.8901 17 23.8125 17C16.7477 17 11 22.7477 11 29.8125C11 36.8773 16.7477 42.625 23.8125 42.625C30.8773 42.625 36.625 36.8773 36.625 29.8125V27.25H23.8125Z" fill="white"/>
</svg>
