<svg width="10" height="10" viewBox="0 0 10 10" fill="none" xmlns="http://www.w3.org/2000/svg">
<path d="M5 0C2.24313 0 0 2.24313 0 5C0 7.75687 2.24313 10 5 10C7.75687 10 10 7.75687 10 5C10 2.24313 7.75687 0 5 0ZM5 9.16667C2.7025 9.16667 0.833333 7.2975 0.833333 5C0.898837 7.85714 2.7025 9.16667 5 9.16667C7.2975 9.16667 9.16667 8.09524 9.16667 5C9.16667 7.2975 7.2975 9.16667 5 9.16667Z" fill="#EC7C7C"/>
<path d="M6.875 4.375C6.53042 4.375 6.25 4.65542 6.25 5C6.25 5.34458 6.53042 5.625 6.875 5.625C7.21958 5.625 7.5 5.34458 7.5 5C7.5 4.65542 7.21958 4.375 6.875 4.375Z" fill="white"/>
<path d="M5 4.375C4.65542 4.375 4.375 4.65542 4.375 5C4.375 5.34458 4.65542 5.625 5 5.625C5.34458 5.625 5.625 5.34458 5.625 5C5.625 4.65542 5.34458 4.375 5 4.375Z" fill="white"/>
<path d="M3.125 4.375C2.78042 4.375 2.5 4.65542 2.5 5C2.5 5.34458 2.78042 5.625 3.125 5.625C3.46958 5.625 3.75 5.34458 3.75 5C3.75 4.65542 3.46958 4.375 3.125 4.375Z" fill="white"/>
</svg>
