<svg width="11" height="11" viewBox="0 0 11 11" fill="none" xmlns="http://www.w3.org/2000/svg">
<path d="M9.85885 4.45238H8.7324L5.98909 1.25621C6.0209 1.1608 6.04252 1.0603 6.04252 0.954082C6.04252 0.428065 5.61446 0 5.08844 0C4.56242 0 4.13436 0.428065 4.13436 0.954082C4.13436 1.0603 4.15598 1.1608 4.18779 1.25621L1.44384 4.45238H0.318027C0.142476 4.45238 0 4.59486 0 4.77041V9.85885C0 10.0344 0.142476 10.1769 0.318027 10.1769H9.85885C10.0344 10.1769 10.1769 10.0344 10.1769 9.85885V4.77041C10.1769 4.59486 10.0344 4.45238 9.85885 4.45238ZM5.08844 0.636055C5.26399 0.636055 5.40647 0.778531 5.40647 0.954082C5.40647 1.12963 5.26399 1.27211 5.08844 1.27211C4.91289 1.27211 4.77041 1.12963 4.77041 0.954082C4.77041 0.778531 4.91289 0.636055 5.08844 0.636055ZM4.59041 1.76378C4.73543 1.85346 4.90526 1.90816 5.08844 1.90816C5.27162 1.90816 5.44145 1.85346 5.58647 1.76378L7.89471 4.45238H2.28217L4.59041 1.76378ZM3.81633 8.58674C3.81633 8.73367 3.71456 8.86279 3.57145 8.89587C3.54728 8.90223 3.52247 8.90477 3.4983 8.90477C3.38 8.90477 3.26869 8.83862 3.21399 8.72922L2.54422 7.38969V8.58674C2.54422 8.76229 2.40174 8.90477 2.22619 8.90477C2.05064 8.90477 1.90816 8.76229 1.90816 8.58674V6.04252C1.90816 5.89559 2.00993 5.76647 2.15305 5.7334C2.29552 5.69651 2.44436 5.76902 2.51051 5.90068L3.18027 7.23958V6.04252C3.18027 5.86697 3.32275 5.72449 3.4983 5.72449C3.67385 5.72449 3.81633 5.86697 3.81633 6.04252V8.58674ZM5.40647 6.9966C5.58202 6.9966 5.72449 7.13908 5.72449 7.31463C5.72449 7.49018 5.58202 7.63266 5.40647 7.63266H5.08844V8.26871H5.40647C5.58202 8.26871 5.72449 8.41119 5.72449 8.58674C5.72449 8.76229 5.58202 8.90477 5.40647 8.90477H4.77041C4.59486 8.90477 4.45238 8.76229 4.45238 8.58674V6.04252C4.45238 5.86697 4.59486 5.72449 4.77041 5.72449H5.40647C5.58202 5.72449 5.72449 5.86697 5.72449 6.04252C5.72449 6.21807 5.58202 6.36055 5.40647 6.36055H5.08844V6.9966H5.40647ZM8.26871 8.58674C8.26871 8.73367 8.16758 8.86279 8.02383 8.89587C7.99903 8.90223 7.97486 8.90477 7.95069 8.90477C7.83175 8.90477 7.72107 8.83862 7.66637 8.72922L7.31463 8.02574L6.96289 8.72858C6.89674 8.86025 6.75109 8.93212 6.60479 8.89587C6.46168 8.86279 6.36055 8.73367 6.36055 8.58674V6.04252C6.36055 5.86697 6.50303 5.72449 6.67858 5.72449C6.85413 5.72449 6.9966 5.86697 6.9966 6.04252V7.23958L7.03032 7.17279C7.13845 6.95781 7.49146 6.95781 7.59959 7.17279L7.63266 7.23958V6.04252C7.63266 5.86697 7.77514 5.72449 7.95069 5.72449C8.12624 5.72449 8.26871 5.86697 8.26871 6.04252V8.58674Z" fill="#EC7C7C"/>
</svg>
