<svg width="9" height="11" viewBox="0 0 9 11" fill="none" xmlns="http://www.w3.org/2000/svg">
<path d="M4.43188 5.19635C5.14576 5.19635 5.76393 4.94031 6.26901 4.43515C6.7741 3.93006 7.03014 3.31206 7.03014 2.59809C7.03014 1.88438 6.7741 1.26629 6.26893 0.761042C5.76376 0.25604 5.14568 0 4.43188 0C3.71791 0 3.09991 0.25604 2.59482 0.761125C2.08974 1.26621 1.83362 1.88429 1.83362 2.59809C1.83362 3.31206 2.08974 3.93014 2.59491 4.43523C3.10007 4.94023 3.71816 5.19635 4.43188 5.19635V5.19635Z" fill="#EC7C7C"/>
<path d="M8.97819 8.29519C8.96362 8.08499 8.93416 7.8557 8.89079 7.61357C8.847 7.36962 8.79062 7.13902 8.72314 6.92824C8.65343 6.71039 8.55862 6.49525 8.44142 6.28909C8.31978 6.0751 8.1769 5.88877 8.01658 5.73545C7.84893 5.57504 7.64367 5.44607 7.40631 5.352C7.16978 5.25843 6.90765 5.21102 6.62725 5.21102C6.51713 5.21102 6.41063 5.2562 6.20496 5.39011C6.07838 5.47266 5.93032 5.56813 5.76506 5.67372C5.62374 5.76376 5.43231 5.84812 5.19586 5.92449C4.96517 5.99914 4.73094 6.037 4.49975 6.037C4.26857 6.037 4.03442 5.99914 3.80348 5.92449C3.56728 5.8482 3.37584 5.76384 3.2347 5.6738C3.071 5.5692 2.92286 5.47373 2.79438 5.39003C2.58896 5.25612 2.48238 5.21094 2.37226 5.21094C2.09178 5.21094 1.82973 5.25843 1.59328 5.35208C1.35608 5.44599 1.15074 5.57496 0.982927 5.73553C0.822686 5.88894 0.679728 6.07519 0.558251 6.28909C0.441136 6.49525 0.346325 6.71031 0.276533 6.92832C0.209128 7.1391 0.152752 7.36962 0.108967 7.61357C0.0655943 7.85537 0.0361304 8.08474 0.021563 8.29543C0.00724253 8.50185 0 8.71608 0 8.93245C0 9.49555 0.179006 9.95142 0.531997 10.2876C0.880626 10.6194 1.34193 10.7877 1.90289 10.7877H7.09711C7.65807 10.7877 8.11921 10.6195 8.46792 10.2876C8.82099 9.95167 9 9.49572 9 8.93237C8.99992 8.71501 8.99259 8.50061 8.97819 8.29519V8.29519Z" fill="#EC7C7C"/>
</svg>
