<svg width="16" height="18" viewBox="0 0 16 18" fill="none" xmlns="http://www.w3.org/2000/svg">
<path d="M4.05957 13.7002L4.76148 14.1637L4.32115 14.8305L3.61923 14.367L4.05957 13.7002Z" fill="#EC7C7C"/>
<path d="M11.8915 2.67374L11.8792 2.62171L11.8265 2.63084C10.601 2.84336 9.47242 3.29251 8.48343 3.9261L12.0131 6.25694C12.2074 5.09857 12.1773 3.88428 11.8915 2.67374V2.67374Z" fill="#EC7C7C"/>
<path d="M3.39861 6.83049L1.35419 9.92642L3.56303 10.5596C3.68843 9.26218 4.07275 8.00031 4.68919 6.85087L3.39861 6.83049Z" fill="#EC7C7C"/>
<path d="M8.95738 8.43133C9.18928 8.08016 9.09226 7.60581 8.74109 7.37391C8.38993 7.14202 7.91558 7.23907 7.68369 7.59024C7.45179 7.94141 7.54882 8.41574 7.89999 8.64763C8.25116 8.87953 8.7255 8.78247 8.95738 8.43133V8.43133Z" fill="#EC7C7C"/>
<path d="M6.79457 12.9693C9.33611 11.8418 11.1272 9.67029 11.8197 7.1372L7.74982 4.4496C5.69217 6.08125 4.39843 8.58117 4.35954 11.3613L5.2261 11.9335L4.54628 12.963L5.24819 13.4265L5.92801 12.3971L6.79457 12.9693ZM6.98179 7.12663C7.46927 6.38842 8.46642 6.18442 9.20462 6.6719C9.94283 7.15938 10.1468 8.15652 9.65931 8.89474C9.17183 9.63295 8.17469 9.83692 7.43649 9.34944C6.69829 8.86197 6.49433 7.8648 6.98179 7.12663V7.12663Z" fill="#EC7C7C"/>
<path d="M3.53027 11.8218L4.23219 12.2853L3.60902 13.229L2.90711 12.7655L3.53027 11.8218Z" fill="#EC7C7C"/>
<path d="M10.8134 10.8949C9.99836 11.9132 8.98875 12.7622 7.84486 13.387L9.29453 15.1698L11.3389 12.0738L10.8134 10.8949Z" fill="#EC7C7C"/>
<path d="M5.99475 13.4492L6.69666 13.9127L6.0735 14.8564L5.37159 14.3929L5.99475 13.4492Z" fill="#EC7C7C"/>
</svg>
