<svg width="10" height="11" viewBox="0 0 10 11" fill="none" xmlns="http://www.w3.org/2000/svg">
<path d="M3.55692 8.2876C2.92219 8.2876 2.40723 8.80256 2.40723 9.4373C2.40723 10.072 2.92219 10.587 3.55692 10.587C4.19166 10.587 4.70662 10.072 4.70662 9.4373C4.70662 8.80256 4.19166 8.2876 3.55692 8.2876Z" fill="#EC7C7C"/>
<path d="M7.88023 8.2876C7.24549 8.2876 6.73053 8.80256 6.73053 9.4373C6.73053 10.072 7.24549 10.587 7.88023 10.587C8.51496 10.587 9.02993 10.072 9.02993 9.4373C9.02993 8.80258 8.51496 8.2876 7.88023 8.2876Z" fill="#EC7C7C"/>
<path d="M10 2.03607H2.33534L2.27546 1.6768C2.10778 0.69476 1.2575 -0.0118384 0.263476 0.00015027H0.239521C0.107783 0.00015027 0 0.107934 0 0.239672C0 0.37141 0.107783 0.479193 0.239521 0.479193H0.263476C1.01796 0.467227 1.67665 1.00614 1.80839 1.74866L2.58683 6.37141C2.70658 7.05405 3.31736 7.55703 4.01197 7.54506H8.80239C8.93413 7.54506 9.04191 7.43728 9.04191 7.30554C9.04191 7.1738 8.93413 7.06602 8.80239 7.06602H4.01197C3.54491 7.07801 3.13771 6.7307 3.06587 6.27559L2.93413 5.50912H8.33534C8.76647 5.50912 9.13773 5.22169 9.2575 4.81451L9.64073 3.4732H2.58683L2.503 2.99416H9.77244L10 2.03607Z" fill="#EC7C7C"/>
</svg>
