<svg width="318" height="270" viewBox="0 0 318 270" fill="none" xmlns="http://www.w3.org/2000/svg">
<path d="M30.3899 176.733C20.0199 176.733 11.6134 168.326 11.6134 157.956C11.6134 147.586 20.0199 139.179 30.3899 139.179C40.76 139.179 49.1665 147.586 49.1665 157.956C49.1665 168.326 40.76 176.733 30.3899 176.733Z" fill="#F2F2F2"/>
<path d="M116.067 176.733C105.697 176.733 97.2901 168.326 97.2901 157.956C97.2901 147.586 105.697 139.179 116.067 139.179C126.437 139.179 134.843 147.586 134.843 157.956C134.843 168.326 126.437 176.733 116.067 176.733Z" fill="#F2F2F2"/>
<path d="M96.7336 7.60449H142.632V62.126H96.7336V7.60449Z" fill="#F2F2F2"/>
<path d="M84.9566 62.4981H143.004V0H84.9566V62.4981ZM142.26 61.7539H85.7009V0.744222H142.26V61.7539Z" fill="#3F3D56"/>
<path d="M84.9566 185.45H143.004V122.952H84.9566V185.45ZM142.26 184.706H85.7009V123.696H142.26V184.706Z" fill="#3F3D56"/>
<path d="M169.799 185.45H227.846V122.952H169.799V185.45ZM227.102 184.706H170.543V123.696H227.102V184.706Z" fill="#3F3D56"/>
<path d="M0.114136 185.45H58.1616V122.952H0.114136V185.45ZM57.4174 184.706H0.858349V123.696H57.4174V184.706Z" fill="#3F3D56"/>
<path d="M113.608 62.126H114.352V123.324H113.608V62.126Z" fill="#3F3D56"/>
<path d="M28.7656 123.324H29.5099V89.2026H198.45V123.324H199.195V88.4584H28.7656V123.324Z" fill="#3F3D56"/>
<path d="M104.522 24.9193H142.632V25.6635H104.522V24.9193Z" fill="#3F3D56"/>
<path d="M104.522 35.0494H142.632V35.7937H104.522V35.0494Z" fill="#3F3D56"/>
<path d="M104.522 45.1797H142.632V45.9239H104.522V45.1797Z" fill="#3F3D56"/>
<path d="M157.946 267.236H308.957V267.896H157.946V267.236Z" fill="#3F3D56"/>
<path d="M198.822 176.733C186.378 176.733 176.291 166.645 176.291 154.201C176.291 141.757 186.378 131.669 198.822 131.669C211.266 131.669 221.354 141.757 221.354 154.201C221.354 166.645 211.266 176.733 198.822 176.733Z" fill="#EC7C7C"/>
<path d="M184.636 151.975H196.597V140.014H201.048V151.975H213.009V156.426H201.048V168.387H196.597V156.426H184.636V151.975Z" fill="white"/>
<path d="M113.98 177.105C118.51 177.105 122.939 175.761 126.705 173.245C130.472 170.728 133.407 167.151 135.141 162.966C136.874 158.781 137.328 154.175 136.444 149.733C135.56 145.29 133.379 141.209 130.176 138.005C126.973 134.802 122.892 132.621 118.449 131.737C114.006 130.853 109.401 131.307 105.216 133.04C101.03 134.774 97.4533 137.709 94.9366 141.476C92.4199 145.242 91.0765 149.671 91.0765 154.201C91.0834 160.273 93.4986 166.095 97.7924 170.389C102.086 174.682 107.908 177.098 113.98 177.105ZM113.98 132.041C118.363 132.041 122.647 133.341 126.292 135.776C129.936 138.211 132.776 141.671 134.453 145.721C136.13 149.77 136.569 154.225 135.714 158.524C134.859 162.823 132.749 166.771 129.65 169.87C126.55 172.969 122.602 175.08 118.303 175.935C114.005 176.79 109.549 176.351 105.5 174.674C101.451 172.996 97.9901 170.156 95.5552 166.512C93.1203 162.868 91.8207 158.583 91.8207 154.201C91.8274 148.326 94.1642 142.693 98.3185 138.539C102.473 134.384 108.105 132.048 113.98 132.041Z" fill="#3F3D56"/>
<path d="M99.4214 156.798H128.539V151.603H99.4214L99.4214 156.798ZM127.795 156.054H100.166V152.347H127.795V156.054Z" fill="#3F3D56"/>
<path d="M29.1379 177.105C33.6679 177.105 38.0961 175.761 41.8627 173.245C45.6292 170.728 48.5649 167.151 50.2985 162.966C52.032 158.781 52.4856 154.176 51.6019 149.733C50.7182 145.29 48.5369 141.209 45.3337 138.005C42.1306 134.802 38.0495 132.621 33.6066 131.737C29.1637 130.853 24.5585 131.307 20.3733 133.04C16.1882 134.774 12.6111 137.709 10.0943 141.476C7.57758 145.242 6.23425 149.671 6.23421 154.201C6.24111 160.273 8.65638 166.095 12.9502 170.388C17.2439 174.682 23.0656 177.098 29.1379 177.105ZM29.1379 132.041C33.5207 132.041 37.8051 133.341 41.4493 135.776C45.0934 138.211 47.9337 141.671 49.611 145.721C51.2882 149.77 51.727 154.225 50.872 158.524C50.017 162.822 47.9065 166.771 44.8074 169.87C41.7083 172.969 37.7598 175.08 33.4612 175.935C29.1626 176.79 24.707 176.351 20.6579 174.674C16.6087 172.996 13.1478 170.156 10.7129 166.512C8.27799 162.868 6.97839 158.583 6.97842 154.201C6.98515 148.326 9.32195 142.693 13.4762 138.539C17.6305 134.385 23.2629 132.048 29.1379 132.041Z" fill="#3F3D56"/>
<path d="M23.3906 160.772V156.798H42.5845V151.603H23.3906V147.593L15.4825 154.422L23.3906 160.772ZM41.8402 156.054H22.6464V159.22L16.6454 154.401L22.6464 149.218V152.347H41.8402V156.054Z" fill="#3F3D56"/>
<path d="M222.896 133.651C222.896 133.651 214.975 150.153 220.255 150.813C225.536 151.473 226.856 135.961 226.856 135.961L222.896 133.651Z" fill="#FFB9B9"/>
<path d="M252.93 239.265L247.649 248.624L257.22 254.613L259.506 243.563L252.93 239.265Z" fill="#FFB9B9"/>
<path d="M250.675 249.924C250.675 249.924 247.775 245.203 246.726 245.993C245.678 246.783 241.352 250.207 241.352 250.207L235.718 255.604C235.718 255.604 216.682 257.616 228.777 264.286C240.873 270.956 247.558 265.426 247.558 265.426C247.558 265.426 264.499 266.307 264.226 261.58C263.953 256.853 258.489 249.375 258.489 249.375C258.489 249.375 251.603 253.992 250.675 249.924Z" fill="#2F2E41"/>
<path opacity="0.1" d="M250.675 249.924C250.675 249.924 247.775 245.203 246.726 245.993C245.678 246.783 241.352 250.207 241.352 250.207L235.718 255.604C235.718 255.604 216.682 257.616 228.777 264.286C240.873 270.956 247.558 265.426 247.558 265.426C247.558 265.426 264.499 266.307 264.226 261.58C263.953 256.853 258.489 249.375 258.489 249.375C258.489 249.375 251.603 253.992 250.675 249.924Z" fill="black"/>
<path d="M276.363 133.486L271.412 193.389C271.412 193.389 271.247 229.199 265.967 236.13C260.686 243.061 260.521 246.526 260.521 246.526L249.629 240.916C249.629 240.916 253.26 240.586 251.61 238.275C249.959 235.965 245.009 238.275 249.629 234.975C254.25 231.674 255.24 231.566 254.085 230.135C253.373 229.227 252.866 228.176 252.6 227.054L255.57 190.089L249.959 125.729L276.363 133.486Z" fill="#2F2E41"/>
<path opacity="0.1" d="M276.363 133.486L271.412 193.389C271.412 193.389 271.247 229.199 265.967 236.13C260.686 243.061 260.521 246.526 260.521 246.526L249.629 240.916C249.629 240.916 253.26 240.586 251.61 238.275C249.959 235.965 245.009 238.275 249.629 234.975C254.25 231.674 255.24 231.566 254.085 230.135C253.373 229.227 252.866 228.176 252.6 227.054L255.57 190.089L249.959 125.729L276.363 133.486Z" fill="black"/>
<path d="M262.831 239.265L267.452 251.477L280.654 246.526L272.402 237.945L262.831 239.265Z" fill="#FFB9B9"/>
<path d="M269.387 246.227C269.387 246.227 264.454 243.144 263.837 244.377C263.22 245.611 260.754 250.852 260.754 250.852L257.979 258.56C257.979 258.56 241.022 269.351 255.513 269.967C270.003 270.584 273.703 262.26 273.703 262.26C273.703 262.26 290.044 255.168 287.577 250.852C285.111 246.536 276.478 242.059 276.478 242.059C276.478 242.059 272.162 249.619 269.387 246.227Z" fill="#2F2E41"/>
<path d="M234.447 133.651L231.807 188.768C231.807 188.768 244.679 225.403 255.9 231.344C255.9 231.344 255.9 238.605 258.541 239.925C259.327 240.332 260.025 240.892 260.592 241.572C261.158 242.252 261.583 243.039 261.841 243.886L276.363 240.256C276.363 240.256 272.733 236.625 274.053 234.975C275.373 233.325 269.762 229.694 269.762 229.694L255.24 194.379C255.24 194.379 252.93 193.389 252.27 190.089C251.61 186.788 250.289 186.788 253.59 186.128C256.89 185.468 256.89 182.167 256.89 182.167L267.782 132L234.447 133.651Z" fill="#2F2E41"/>
<path d="M246.329 47.1785C239.038 47.1785 233.127 41.2678 233.127 33.9766C233.127 26.6854 239.038 20.7748 246.329 20.7748C253.62 20.7748 259.531 26.6854 259.531 33.9766C259.531 41.2678 253.62 47.1785 246.329 47.1785Z" fill="#FFB9B9"/>
<path d="M258.045 34.8018C258.045 34.8018 259.035 51.6341 260.356 53.2843C261.676 54.9346 246.494 54.6045 246.494 54.6045C246.494 54.6045 247.484 40.4125 246.494 39.0924C245.504 37.7722 258.045 34.8018 258.045 34.8018Z" fill="#FFB9B9"/>
<path d="M262.501 48.1686C262.501 48.1686 249.959 46.8484 245.339 50.809C243.863 52.0692 242.281 53.2005 240.612 54.1905C239.218 55.0267 238.056 56.2001 237.234 57.6028C236.412 59.0054 235.956 60.5922 235.908 62.2173L233.457 137.281C233.457 137.281 270.752 133.981 277.683 137.281C277.683 137.281 278.013 129.69 278.673 128.7C279.154 127.978 279.986 99.1918 280.402 83.643C280.637 74.8683 277.621 66.2609 271.737 59.7475C269.736 57.5333 267.501 55.6772 265.141 54.7696C265.141 54.7696 265.801 48.4987 262.501 48.1686Z" fill="#575A89"/>
<path d="M242.368 54.7695C240.51 55.2584 238.838 56.2854 237.562 57.7214C236.286 59.1575 235.463 60.9386 235.195 62.841L230.487 96.3553L223.886 123.089C223.886 123.089 220.585 126.059 221.905 127.71C223.226 129.36 220.255 136.291 220.255 136.291L228.506 138.931C228.506 138.931 229.496 132 231.147 131.67C232.597 131.38 248.832 88.0112 252.745 77.5049C253.285 76.0562 253.59 75.2324 253.59 75.2324C253.59 75.2324 252.93 53.1193 242.368 54.7695Z" fill="#575A89"/>
<path opacity="0.1" d="M253.425 75.0674L233.457 129.086C233.457 129.086 252.765 92.5598 253.425 75.0674Z" fill="black"/>
<path d="M253.226 37.8667C252.109 37.8001 251.019 38.1774 249.91 38.3246C245.944 38.8512 241.817 35.9728 240.941 32.0682C240.871 31.5483 240.716 31.0434 240.482 30.5735C239.872 29.5768 238.482 29.3868 237.335 29.6159C236.189 29.8451 235.103 30.3816 233.935 30.4428C232.133 30.5374 230.403 29.4278 229.442 27.8999C228.482 26.372 228.21 24.4919 228.34 22.6918L229.204 23.5986C229.555 22.8559 229.69 22.0295 229.595 21.2135C230.053 21.0916 230.534 21.0893 230.993 21.2067C231.452 21.3242 231.873 21.5575 232.216 21.8843C232.978 21.9654 232.403 20.4713 232.969 19.9549C233.206 19.7387 233.57 19.7795 233.89 19.7826C235.511 19.7982 236.822 18.5585 238.099 17.5606C240.312 15.8354 242.9 14.6551 245.653 14.115C247.483 13.758 249.43 13.7006 251.165 14.3821C252.591 14.9418 253.784 15.9611 254.887 17.0225C257.605 19.6353 260.011 22.7053 261.141 26.3015C262.06 29.247 262.086 32.3988 261.216 35.3591C260.761 36.8965 259.388 42.1616 257.378 42.2842C254.853 42.4383 256.369 38.0542 253.226 37.8667Z" fill="#2F2E41"/>
<path d="M294.381 267.46L294.735 267.327C294.813 267.298 302.56 264.33 306.189 257.599C309.819 250.869 308.041 242.765 308.023 242.684L307.939 242.315L307.585 242.448C307.508 242.478 299.761 245.446 296.131 252.176C292.502 258.906 294.279 267.01 294.298 267.091L294.381 267.46ZM305.608 257.286C302.54 262.977 296.418 265.893 294.867 266.559C294.572 264.897 293.647 258.174 296.713 252.489C299.778 246.805 305.902 243.883 307.454 243.216C307.749 244.879 308.674 251.602 305.608 257.286H305.608Z" fill="#3F3D56"/>
<path d="M303.416 255.239C296.894 259.162 294.382 266.956 294.382 266.956C294.382 266.956 302.444 268.388 308.966 264.464C315.488 260.54 318 252.747 318 252.747C318 252.747 309.938 251.315 303.416 255.239Z" fill="#EC7C7C"/>
</svg>
