<svg width="11" height="9" viewBox="0 0 11 9" fill="none" xmlns="http://www.w3.org/2000/svg">
<path d="M6.27385 1.88214C6.04297 1.88214 5.85559 1.69476 5.85559 1.46389V0.836508H4.18258V1.46389C4.18258 1.69476 3.9952 1.88214 3.76432 1.88214C3.53345 1.88214 3.34607 1.69476 3.34607 1.46389V0.836508C3.34607 0.375174 3.72124 0 4.18258 0H5.85559C6.31693 0 6.6921 0.375174 6.6921 0.836508V1.46389C6.6921 1.69476 6.50472 1.88214 6.27385 1.88214Z" fill="#EC7C7C"/>
<path d="M7.52851 4.39154V4.77634C7.52851 4.94782 7.3863 5.09003 7.21482 5.09003C7.04334 5.09003 6.90113 4.94782 6.90113 4.77634V4.39154H3.13684V4.77634C3.13684 4.94782 2.99464 5.09003 2.82315 5.09003C2.65167 5.09003 2.50946 4.94782 2.50946 4.77634V4.39154H-6.10352e-05V7.21476C-6.10352e-05 7.8505 0.514391 8.36496 1.15014 8.36496H8.88783C9.52358 8.36496 10.038 7.8505 10.038 7.21476V4.39154H7.52851ZM8.88783 1.25464H1.15014C0.514391 1.25464 -6.10352e-05 1.76909 -6.10352e-05 2.40484V3.76416H2.50946V3.24135C2.50946 3.06986 2.65167 2.92765 2.82315 2.92765C2.99464 2.92765 3.13684 3.06986 3.13684 3.24135V3.76416H6.90113V3.24135C6.90113 3.06986 7.04334 2.92765 7.21482 2.92765C7.3863 2.92765 7.52851 3.06986 7.52851 3.24135V3.76416H10.038V2.40484C10.038 1.76909 9.52358 1.25464 8.88783 1.25464Z" fill="#EC7C7C"/>
</svg>
